<mxfile host="app.diagrams.net" modified="2022-10-02T12:41:30.566Z" agent="5.0 (Windows NT 10.0; Win64; x64) AppleWebKit/537.36 (KHTML, like Gecko) Chrome/105.0.0.0 Safari/537.36" etag="APEOSPNQJjZI0QLgAEEt" version="20.3.5" type="github">
  <diagram id="DfLhimq6Y4Ct71YVJqht" name="Page-1">
    <mxGraphModel dx="1580" dy="843" grid="1" gridSize="10" guides="1" tooltips="1" connect="1" arrows="1" fold="1" page="1" pageScale="1" pageWidth="827" pageHeight="1169" math="0" shadow="0">
      <root>
        <mxCell id="0" />
        <mxCell id="1" parent="0" />
        <mxCell id="TFirGjmaCpjXLoTHfF9m-28" style="edgeStyle=orthogonalEdgeStyle;rounded=0;orthogonalLoop=1;jettySize=auto;html=1;exitX=0.5;exitY=0;exitDx=0;exitDy=0;endArrow=none;endFill=0;" edge="1" parent="1" source="TFirGjmaCpjXLoTHfF9m-15" target="TFirGjmaCpjXLoTHfF9m-25">
          <mxGeometry relative="1" as="geometry" />
        </mxCell>
        <mxCell id="TFirGjmaCpjXLoTHfF9m-15" value="사용자" style="whiteSpace=wrap;html=1;align=center;" vertex="1" parent="1">
          <mxGeometry x="170" y="130" width="100" height="40" as="geometry" />
        </mxCell>
        <mxCell id="TFirGjmaCpjXLoTHfF9m-30" style="edgeStyle=orthogonalEdgeStyle;rounded=0;orthogonalLoop=1;jettySize=auto;html=1;exitX=0;exitY=0;exitDx=0;exitDy=0;entryX=0.569;entryY=0.986;entryDx=0;entryDy=0;entryPerimeter=0;endArrow=none;endFill=0;" edge="1" parent="1" source="TFirGjmaCpjXLoTHfF9m-20" target="TFirGjmaCpjXLoTHfF9m-15">
          <mxGeometry relative="1" as="geometry">
            <Array as="points">
              <mxPoint x="250" y="186" />
              <mxPoint x="250" y="169" />
            </Array>
          </mxGeometry>
        </mxCell>
        <mxCell id="TFirGjmaCpjXLoTHfF9m-20" value="생년월일" style="ellipse;whiteSpace=wrap;html=1;align=center;" vertex="1" parent="1">
          <mxGeometry x="340" y="170" width="100" height="40" as="geometry" />
        </mxCell>
        <mxCell id="TFirGjmaCpjXLoTHfF9m-29" style="edgeStyle=orthogonalEdgeStyle;rounded=0;orthogonalLoop=1;jettySize=auto;html=1;exitX=0;exitY=0.5;exitDx=0;exitDy=0;entryX=1;entryY=0.5;entryDx=0;entryDy=0;endArrow=none;endFill=0;" edge="1" parent="1" source="TFirGjmaCpjXLoTHfF9m-22" target="TFirGjmaCpjXLoTHfF9m-15">
          <mxGeometry relative="1" as="geometry">
            <Array as="points">
              <mxPoint x="300" y="140" />
              <mxPoint x="270" y="140" />
            </Array>
          </mxGeometry>
        </mxCell>
        <mxCell id="TFirGjmaCpjXLoTHfF9m-22" value="직급" style="ellipse;whiteSpace=wrap;html=1;align=center;" vertex="1" parent="1">
          <mxGeometry x="360" y="90" width="100" height="40" as="geometry" />
        </mxCell>
        <mxCell id="TFirGjmaCpjXLoTHfF9m-32" style="edgeStyle=orthogonalEdgeStyle;rounded=0;orthogonalLoop=1;jettySize=auto;html=1;exitX=1;exitY=0.5;exitDx=0;exitDy=0;entryX=0;entryY=0.5;entryDx=0;entryDy=0;endArrow=none;endFill=0;" edge="1" parent="1" source="TFirGjmaCpjXLoTHfF9m-23" target="TFirGjmaCpjXLoTHfF9m-15">
          <mxGeometry relative="1" as="geometry">
            <Array as="points">
              <mxPoint x="140" y="140" />
              <mxPoint x="170" y="140" />
            </Array>
          </mxGeometry>
        </mxCell>
        <mxCell id="TFirGjmaCpjXLoTHfF9m-23" value="이름" style="ellipse;whiteSpace=wrap;html=1;align=center;" vertex="1" parent="1">
          <mxGeometry x="40" y="110" width="100" height="40" as="geometry" />
        </mxCell>
        <mxCell id="TFirGjmaCpjXLoTHfF9m-25" value="연락처" style="ellipse;whiteSpace=wrap;html=1;align=center;" vertex="1" parent="1">
          <mxGeometry x="120" y="50" width="100" height="40" as="geometry" />
        </mxCell>
        <mxCell id="TFirGjmaCpjXLoTHfF9m-31" style="edgeStyle=orthogonalEdgeStyle;rounded=0;orthogonalLoop=1;jettySize=auto;html=1;exitX=0.5;exitY=0;exitDx=0;exitDy=0;entryX=0;entryY=0.75;entryDx=0;entryDy=0;endArrow=none;endFill=0;" edge="1" parent="1" source="TFirGjmaCpjXLoTHfF9m-27" target="TFirGjmaCpjXLoTHfF9m-15">
          <mxGeometry relative="1" as="geometry" />
        </mxCell>
        <mxCell id="TFirGjmaCpjXLoTHfF9m-27" value="사원번호" style="ellipse;whiteSpace=wrap;html=1;align=center;fontStyle=4;" vertex="1" parent="1">
          <mxGeometry x="30" y="190" width="100" height="40" as="geometry" />
        </mxCell>
        <mxCell id="TFirGjmaCpjXLoTHfF9m-33" value="부서" style="whiteSpace=wrap;html=1;align=center;" vertex="1" parent="1">
          <mxGeometry x="600" y="120" width="100" height="40" as="geometry" />
        </mxCell>
        <mxCell id="TFirGjmaCpjXLoTHfF9m-36" style="edgeStyle=orthogonalEdgeStyle;rounded=0;orthogonalLoop=1;jettySize=auto;html=1;exitX=0.5;exitY=1;exitDx=0;exitDy=0;endArrow=none;endFill=0;" edge="1" parent="1" source="TFirGjmaCpjXLoTHfF9m-35" target="TFirGjmaCpjXLoTHfF9m-33">
          <mxGeometry relative="1" as="geometry">
            <Array as="points">
              <mxPoint x="630" y="90" />
            </Array>
          </mxGeometry>
        </mxCell>
        <mxCell id="TFirGjmaCpjXLoTHfF9m-35" value="부서이름" style="ellipse;whiteSpace=wrap;html=1;align=center;fontStyle=4;" vertex="1" parent="1">
          <mxGeometry x="540" y="30" width="100" height="40" as="geometry" />
        </mxCell>
        <mxCell id="TFirGjmaCpjXLoTHfF9m-49" style="edgeStyle=orthogonalEdgeStyle;rounded=0;orthogonalLoop=1;jettySize=auto;html=1;exitX=0;exitY=0.75;exitDx=0;exitDy=0;entryX=1;entryY=0;entryDx=0;entryDy=0;endArrow=none;endFill=0;" edge="1" parent="1" source="TFirGjmaCpjXLoTHfF9m-38" target="TFirGjmaCpjXLoTHfF9m-45">
          <mxGeometry relative="1" as="geometry" />
        </mxCell>
        <mxCell id="TFirGjmaCpjXLoTHfF9m-57" style="edgeStyle=orthogonalEdgeStyle;rounded=0;orthogonalLoop=1;jettySize=auto;html=1;exitX=0.5;exitY=1;exitDx=0;exitDy=0;entryX=0.5;entryY=0;entryDx=0;entryDy=0;endArrow=none;endFill=0;" edge="1" parent="1" source="TFirGjmaCpjXLoTHfF9m-38" target="TFirGjmaCpjXLoTHfF9m-56">
          <mxGeometry relative="1" as="geometry" />
        </mxCell>
        <mxCell id="TFirGjmaCpjXLoTHfF9m-38" value="업무일지" style="whiteSpace=wrap;html=1;align=center;" vertex="1" parent="1">
          <mxGeometry x="153" y="390" width="100" height="40" as="geometry" />
        </mxCell>
        <mxCell id="TFirGjmaCpjXLoTHfF9m-43" style="edgeStyle=orthogonalEdgeStyle;rounded=0;orthogonalLoop=1;jettySize=auto;html=1;exitX=0.5;exitY=1;exitDx=0;exitDy=0;endArrow=none;endFill=0;" edge="1" parent="1" source="TFirGjmaCpjXLoTHfF9m-39" target="TFirGjmaCpjXLoTHfF9m-38">
          <mxGeometry relative="1" as="geometry" />
        </mxCell>
        <mxCell id="TFirGjmaCpjXLoTHfF9m-39" value="제목" style="ellipse;whiteSpace=wrap;html=1;align=center;" vertex="1" parent="1">
          <mxGeometry x="230" y="300" width="100" height="40" as="geometry" />
        </mxCell>
        <mxCell id="TFirGjmaCpjXLoTHfF9m-42" style="edgeStyle=orthogonalEdgeStyle;rounded=0;orthogonalLoop=1;jettySize=auto;html=1;exitX=0.5;exitY=1;exitDx=0;exitDy=0;entryX=0;entryY=0.5;entryDx=0;entryDy=0;endArrow=none;endFill=0;" edge="1" parent="1" source="TFirGjmaCpjXLoTHfF9m-40" target="TFirGjmaCpjXLoTHfF9m-38">
          <mxGeometry relative="1" as="geometry" />
        </mxCell>
        <mxCell id="TFirGjmaCpjXLoTHfF9m-40" value="업무일지 번호" style="ellipse;whiteSpace=wrap;html=1;align=center;fontStyle=4;" vertex="1" parent="1">
          <mxGeometry x="63" y="330" width="100" height="40" as="geometry" />
        </mxCell>
        <mxCell id="TFirGjmaCpjXLoTHfF9m-44" style="edgeStyle=orthogonalEdgeStyle;rounded=0;orthogonalLoop=1;jettySize=auto;html=1;exitX=0;exitY=0.5;exitDx=0;exitDy=0;entryX=1;entryY=0.5;entryDx=0;entryDy=0;endArrow=none;endFill=0;" edge="1" parent="1" source="TFirGjmaCpjXLoTHfF9m-41" target="TFirGjmaCpjXLoTHfF9m-38">
          <mxGeometry relative="1" as="geometry" />
        </mxCell>
        <mxCell id="TFirGjmaCpjXLoTHfF9m-41" value="내용" style="ellipse;whiteSpace=wrap;html=1;align=center;" vertex="1" parent="1">
          <mxGeometry x="283" y="360" width="100" height="40" as="geometry" />
        </mxCell>
        <mxCell id="TFirGjmaCpjXLoTHfF9m-45" value="작성일" style="ellipse;whiteSpace=wrap;html=1;align=center;" vertex="1" parent="1">
          <mxGeometry x="33" y="430" width="100" height="40" as="geometry" />
        </mxCell>
        <mxCell id="TFirGjmaCpjXLoTHfF9m-50" style="edgeStyle=orthogonalEdgeStyle;rounded=0;orthogonalLoop=1;jettySize=auto;html=1;exitX=1;exitY=0.5;exitDx=0;exitDy=0;entryX=0.25;entryY=1;entryDx=0;entryDy=0;endArrow=none;endFill=0;" edge="1" parent="1" source="TFirGjmaCpjXLoTHfF9m-46" target="TFirGjmaCpjXLoTHfF9m-38">
          <mxGeometry relative="1" as="geometry">
            <Array as="points">
              <mxPoint x="178" y="510" />
            </Array>
          </mxGeometry>
        </mxCell>
        <mxCell id="TFirGjmaCpjXLoTHfF9m-46" value="작성자" style="ellipse;whiteSpace=wrap;html=1;align=center;" vertex="1" parent="1">
          <mxGeometry x="33" y="490" width="100" height="40" as="geometry" />
        </mxCell>
        <mxCell id="TFirGjmaCpjXLoTHfF9m-52" style="edgeStyle=orthogonalEdgeStyle;rounded=0;orthogonalLoop=1;jettySize=auto;html=1;exitX=0;exitY=0.5;exitDx=0;exitDy=0;endArrow=none;endFill=0;entryX=0.75;entryY=1;entryDx=0;entryDy=0;" edge="1" parent="1" source="TFirGjmaCpjXLoTHfF9m-48" target="TFirGjmaCpjXLoTHfF9m-38">
          <mxGeometry relative="1" as="geometry">
            <mxPoint x="243" y="460" as="targetPoint" />
            <Array as="points">
              <mxPoint x="228" y="440" />
            </Array>
          </mxGeometry>
        </mxCell>
        <mxCell id="TFirGjmaCpjXLoTHfF9m-48" value="수정일" style="ellipse;whiteSpace=wrap;html=1;align=center;" vertex="1" parent="1">
          <mxGeometry x="327" y="420" width="100" height="40" as="geometry" />
        </mxCell>
        <mxCell id="TFirGjmaCpjXLoTHfF9m-55" value="일정 (캘린더)" style="whiteSpace=wrap;html=1;align=center;" vertex="1" parent="1">
          <mxGeometry x="600" y="290" width="100" height="40" as="geometry" />
        </mxCell>
        <mxCell id="TFirGjmaCpjXLoTHfF9m-56" value="첨부파일" style="ellipse;whiteSpace=wrap;html=1;align=center;" vertex="1" parent="1">
          <mxGeometry x="213" y="490" width="100" height="40" as="geometry" />
        </mxCell>
        <mxCell id="TFirGjmaCpjXLoTHfF9m-67" style="edgeStyle=orthogonalEdgeStyle;rounded=0;orthogonalLoop=1;jettySize=auto;html=1;exitX=1;exitY=1;exitDx=0;exitDy=0;entryX=0.44;entryY=0.039;entryDx=0;entryDy=0;entryPerimeter=0;endArrow=none;endFill=0;" edge="1" parent="1" source="TFirGjmaCpjXLoTHfF9m-58" target="TFirGjmaCpjXLoTHfF9m-55">
          <mxGeometry relative="1" as="geometry" />
        </mxCell>
        <mxCell id="TFirGjmaCpjXLoTHfF9m-58" value="일정 제목" style="ellipse;whiteSpace=wrap;html=1;align=center;" vertex="1" parent="1">
          <mxGeometry x="530" y="230" width="100" height="40" as="geometry" />
        </mxCell>
        <mxCell id="TFirGjmaCpjXLoTHfF9m-68" style="edgeStyle=orthogonalEdgeStyle;rounded=0;orthogonalLoop=1;jettySize=auto;html=1;exitX=0.5;exitY=1;exitDx=0;exitDy=0;entryX=0.626;entryY=0.021;entryDx=0;entryDy=0;entryPerimeter=0;endArrow=none;endFill=0;" edge="1" parent="1" source="TFirGjmaCpjXLoTHfF9m-59" target="TFirGjmaCpjXLoTHfF9m-55">
          <mxGeometry relative="1" as="geometry" />
        </mxCell>
        <mxCell id="TFirGjmaCpjXLoTHfF9m-59" value="일정 내용" style="ellipse;whiteSpace=wrap;html=1;align=center;" vertex="1" parent="1">
          <mxGeometry x="650" y="220" width="100" height="40" as="geometry" />
        </mxCell>
        <mxCell id="TFirGjmaCpjXLoTHfF9m-65" style="edgeStyle=orthogonalEdgeStyle;rounded=0;orthogonalLoop=1;jettySize=auto;html=1;exitX=1;exitY=0.5;exitDx=0;exitDy=0;entryX=0;entryY=0.5;entryDx=0;entryDy=0;endArrow=none;endFill=0;" edge="1" parent="1" source="TFirGjmaCpjXLoTHfF9m-60" target="TFirGjmaCpjXLoTHfF9m-55">
          <mxGeometry relative="1" as="geometry">
            <Array as="points">
              <mxPoint x="570" y="310" />
            </Array>
          </mxGeometry>
        </mxCell>
        <mxCell id="TFirGjmaCpjXLoTHfF9m-60" value="작성자" style="ellipse;whiteSpace=wrap;html=1;align=center;" vertex="1" parent="1">
          <mxGeometry x="430" y="290" width="100" height="40" as="geometry" />
        </mxCell>
        <mxCell id="TFirGjmaCpjXLoTHfF9m-69" style="edgeStyle=orthogonalEdgeStyle;rounded=0;orthogonalLoop=1;jettySize=auto;html=1;exitX=0;exitY=0.5;exitDx=0;exitDy=0;entryX=1;entryY=0.5;entryDx=0;entryDy=0;endArrow=none;endFill=0;" edge="1" parent="1" source="TFirGjmaCpjXLoTHfF9m-61" target="TFirGjmaCpjXLoTHfF9m-55">
          <mxGeometry relative="1" as="geometry">
            <Array as="points">
              <mxPoint x="710" y="310" />
            </Array>
          </mxGeometry>
        </mxCell>
        <mxCell id="TFirGjmaCpjXLoTHfF9m-61" value="일정 날짜" style="ellipse;whiteSpace=wrap;html=1;align=center;" vertex="1" parent="1">
          <mxGeometry x="710" y="270" width="100" height="40" as="geometry" />
        </mxCell>
        <mxCell id="TFirGjmaCpjXLoTHfF9m-70" style="edgeStyle=orthogonalEdgeStyle;rounded=0;orthogonalLoop=1;jettySize=auto;html=1;exitX=0;exitY=0.5;exitDx=0;exitDy=0;entryX=0.75;entryY=1;entryDx=0;entryDy=0;endArrow=none;endFill=0;" edge="1" parent="1" source="TFirGjmaCpjXLoTHfF9m-62" target="TFirGjmaCpjXLoTHfF9m-55">
          <mxGeometry relative="1" as="geometry" />
        </mxCell>
        <mxCell id="TFirGjmaCpjXLoTHfF9m-62" value="일정 시간" style="ellipse;whiteSpace=wrap;html=1;align=center;" vertex="1" parent="1">
          <mxGeometry x="720" y="330" width="100" height="40" as="geometry" />
        </mxCell>
        <mxCell id="TFirGjmaCpjXLoTHfF9m-71" style="edgeStyle=orthogonalEdgeStyle;rounded=0;orthogonalLoop=1;jettySize=auto;html=1;exitX=0;exitY=0;exitDx=0;exitDy=0;endArrow=none;endFill=0;" edge="1" parent="1" source="TFirGjmaCpjXLoTHfF9m-63" target="TFirGjmaCpjXLoTHfF9m-55">
          <mxGeometry relative="1" as="geometry" />
        </mxCell>
        <mxCell id="TFirGjmaCpjXLoTHfF9m-63" value="일정 장소" style="ellipse;whiteSpace=wrap;html=1;align=center;" vertex="1" parent="1">
          <mxGeometry x="660" y="380" width="100" height="40" as="geometry" />
        </mxCell>
        <mxCell id="TFirGjmaCpjXLoTHfF9m-73" style="edgeStyle=orthogonalEdgeStyle;rounded=0;orthogonalLoop=1;jettySize=auto;html=1;exitX=1;exitY=0;exitDx=0;exitDy=0;entryX=0;entryY=0.75;entryDx=0;entryDy=0;endArrow=none;endFill=0;" edge="1" parent="1" source="TFirGjmaCpjXLoTHfF9m-64" target="TFirGjmaCpjXLoTHfF9m-55">
          <mxGeometry relative="1" as="geometry">
            <Array as="points">
              <mxPoint x="570" y="346" />
              <mxPoint x="570" y="320" />
            </Array>
          </mxGeometry>
        </mxCell>
        <mxCell id="TFirGjmaCpjXLoTHfF9m-64" value="일정 번호" style="ellipse;whiteSpace=wrap;html=1;align=center;fontStyle=4;" vertex="1" parent="1">
          <mxGeometry x="490" y="340" width="100" height="40" as="geometry" />
        </mxCell>
        <mxCell id="TFirGjmaCpjXLoTHfF9m-72" style="edgeStyle=orthogonalEdgeStyle;rounded=0;orthogonalLoop=1;jettySize=auto;html=1;exitX=0.5;exitY=0;exitDx=0;exitDy=0;entryX=0.25;entryY=1;entryDx=0;entryDy=0;endArrow=none;endFill=0;" edge="1" parent="1" source="TFirGjmaCpjXLoTHfF9m-66" target="TFirGjmaCpjXLoTHfF9m-55">
          <mxGeometry relative="1" as="geometry">
            <Array as="points">
              <mxPoint x="625" y="390" />
            </Array>
          </mxGeometry>
        </mxCell>
        <mxCell id="TFirGjmaCpjXLoTHfF9m-66" value="수정일" style="ellipse;whiteSpace=wrap;html=1;align=center;" vertex="1" parent="1">
          <mxGeometry x="540" y="390" width="100" height="40" as="geometry" />
        </mxCell>
        <mxCell id="TFirGjmaCpjXLoTHfF9m-74" value="결재 문서" style="whiteSpace=wrap;html=1;align=center;" vertex="1" parent="1">
          <mxGeometry x="560" y="610" width="100" height="40" as="geometry" />
        </mxCell>
        <mxCell id="TFirGjmaCpjXLoTHfF9m-85" style="edgeStyle=orthogonalEdgeStyle;rounded=0;orthogonalLoop=1;jettySize=auto;html=1;exitX=1;exitY=1;exitDx=0;exitDy=0;entryX=0.25;entryY=0;entryDx=0;entryDy=0;endArrow=none;endFill=0;" edge="1" parent="1" source="TFirGjmaCpjXLoTHfF9m-75" target="TFirGjmaCpjXLoTHfF9m-74">
          <mxGeometry relative="1" as="geometry" />
        </mxCell>
        <mxCell id="TFirGjmaCpjXLoTHfF9m-75" value="제목" style="ellipse;whiteSpace=wrap;html=1;align=center;" vertex="1" parent="1">
          <mxGeometry x="450" y="550" width="100" height="40" as="geometry" />
        </mxCell>
        <mxCell id="TFirGjmaCpjXLoTHfF9m-86" style="edgeStyle=orthogonalEdgeStyle;rounded=0;orthogonalLoop=1;jettySize=auto;html=1;exitX=0.5;exitY=1;exitDx=0;exitDy=0;endArrow=none;endFill=0;" edge="1" parent="1" source="TFirGjmaCpjXLoTHfF9m-76" target="TFirGjmaCpjXLoTHfF9m-74">
          <mxGeometry relative="1" as="geometry" />
        </mxCell>
        <mxCell id="TFirGjmaCpjXLoTHfF9m-76" value="결재 문서 번호" style="ellipse;whiteSpace=wrap;html=1;align=center;fontStyle=4;" vertex="1" parent="1">
          <mxGeometry x="550" y="520" width="100" height="40" as="geometry" />
        </mxCell>
        <mxCell id="TFirGjmaCpjXLoTHfF9m-87" style="edgeStyle=orthogonalEdgeStyle;rounded=0;orthogonalLoop=1;jettySize=auto;html=1;exitX=0;exitY=0.5;exitDx=0;exitDy=0;entryX=0.75;entryY=0;entryDx=0;entryDy=0;endArrow=none;endFill=0;" edge="1" parent="1" source="TFirGjmaCpjXLoTHfF9m-78" target="TFirGjmaCpjXLoTHfF9m-74">
          <mxGeometry relative="1" as="geometry" />
        </mxCell>
        <mxCell id="TFirGjmaCpjXLoTHfF9m-78" value="내용" style="ellipse;whiteSpace=wrap;html=1;align=center;" vertex="1" parent="1">
          <mxGeometry x="650" y="545" width="100" height="40" as="geometry" />
        </mxCell>
        <mxCell id="TFirGjmaCpjXLoTHfF9m-89" style="edgeStyle=orthogonalEdgeStyle;rounded=0;orthogonalLoop=1;jettySize=auto;html=1;exitX=0;exitY=0.5;exitDx=0;exitDy=0;entryX=1;entryY=0.75;entryDx=0;entryDy=0;endArrow=none;endFill=0;" edge="1" parent="1" source="TFirGjmaCpjXLoTHfF9m-79" target="TFirGjmaCpjXLoTHfF9m-74">
          <mxGeometry relative="1" as="geometry" />
        </mxCell>
        <mxCell id="TFirGjmaCpjXLoTHfF9m-79" value="작성자" style="ellipse;whiteSpace=wrap;html=1;align=center;" vertex="1" parent="1">
          <mxGeometry x="700" y="650" width="100" height="40" as="geometry" />
        </mxCell>
        <mxCell id="TFirGjmaCpjXLoTHfF9m-88" style="edgeStyle=orthogonalEdgeStyle;rounded=0;orthogonalLoop=1;jettySize=auto;html=1;exitX=0;exitY=0.5;exitDx=0;exitDy=0;entryX=1;entryY=0.25;entryDx=0;entryDy=0;endArrow=none;endFill=0;" edge="1" parent="1" source="TFirGjmaCpjXLoTHfF9m-80" target="TFirGjmaCpjXLoTHfF9m-74">
          <mxGeometry relative="1" as="geometry" />
        </mxCell>
        <mxCell id="TFirGjmaCpjXLoTHfF9m-80" value="작성일" style="ellipse;whiteSpace=wrap;html=1;align=center;" vertex="1" parent="1">
          <mxGeometry x="690" y="600" width="100" height="40" as="geometry" />
        </mxCell>
        <mxCell id="TFirGjmaCpjXLoTHfF9m-93" style="edgeStyle=orthogonalEdgeStyle;rounded=0;orthogonalLoop=1;jettySize=auto;html=1;exitX=1;exitY=0.5;exitDx=0;exitDy=0;entryX=0;entryY=0.25;entryDx=0;entryDy=0;endArrow=none;endFill=0;" edge="1" parent="1" source="TFirGjmaCpjXLoTHfF9m-81" target="TFirGjmaCpjXLoTHfF9m-74">
          <mxGeometry relative="1" as="geometry" />
        </mxCell>
        <mxCell id="TFirGjmaCpjXLoTHfF9m-81" value="결재자" style="ellipse;whiteSpace=wrap;html=1;align=center;" vertex="1" parent="1">
          <mxGeometry x="430" y="600" width="100" height="40" as="geometry" />
        </mxCell>
        <mxCell id="TFirGjmaCpjXLoTHfF9m-92" style="edgeStyle=orthogonalEdgeStyle;rounded=0;orthogonalLoop=1;jettySize=auto;html=1;exitX=1;exitY=0;exitDx=0;exitDy=0;entryX=0;entryY=0.75;entryDx=0;entryDy=0;endArrow=none;endFill=0;" edge="1" parent="1" source="TFirGjmaCpjXLoTHfF9m-82" target="TFirGjmaCpjXLoTHfF9m-74">
          <mxGeometry relative="1" as="geometry" />
        </mxCell>
        <mxCell id="TFirGjmaCpjXLoTHfF9m-82" value="결재 유형" style="ellipse;whiteSpace=wrap;html=1;align=center;" vertex="1" parent="1">
          <mxGeometry x="430" y="660" width="100" height="40" as="geometry" />
        </mxCell>
        <mxCell id="TFirGjmaCpjXLoTHfF9m-91" style="edgeStyle=orthogonalEdgeStyle;rounded=0;orthogonalLoop=1;jettySize=auto;html=1;exitX=1;exitY=0;exitDx=0;exitDy=0;entryX=0.25;entryY=1;entryDx=0;entryDy=0;endArrow=none;endFill=0;" edge="1" parent="1" source="TFirGjmaCpjXLoTHfF9m-83" target="TFirGjmaCpjXLoTHfF9m-74">
          <mxGeometry relative="1" as="geometry" />
        </mxCell>
        <mxCell id="TFirGjmaCpjXLoTHfF9m-83" value="첨부파일" style="ellipse;whiteSpace=wrap;html=1;align=center;" vertex="1" parent="1">
          <mxGeometry x="514" y="690" width="100" height="40" as="geometry" />
        </mxCell>
        <mxCell id="TFirGjmaCpjXLoTHfF9m-90" style="edgeStyle=orthogonalEdgeStyle;rounded=0;orthogonalLoop=1;jettySize=auto;html=1;exitX=0.5;exitY=0;exitDx=0;exitDy=0;entryX=0.75;entryY=1;entryDx=0;entryDy=0;endArrow=none;endFill=0;" edge="1" parent="1" source="TFirGjmaCpjXLoTHfF9m-84" target="TFirGjmaCpjXLoTHfF9m-74">
          <mxGeometry relative="1" as="geometry" />
        </mxCell>
        <mxCell id="TFirGjmaCpjXLoTHfF9m-84" value="수정일" style="ellipse;whiteSpace=wrap;html=1;align=center;" vertex="1" parent="1">
          <mxGeometry x="630" y="700" width="100" height="40" as="geometry" />
        </mxCell>
        <mxCell id="TFirGjmaCpjXLoTHfF9m-94" value="댓글" style="whiteSpace=wrap;html=1;align=center;" vertex="1" parent="1">
          <mxGeometry x="130" y="660" width="100" height="40" as="geometry" />
        </mxCell>
        <mxCell id="TFirGjmaCpjXLoTHfF9m-101" style="edgeStyle=orthogonalEdgeStyle;rounded=0;orthogonalLoop=1;jettySize=auto;html=1;exitX=0;exitY=0.5;exitDx=0;exitDy=0;entryX=0.75;entryY=0;entryDx=0;entryDy=0;endArrow=none;endFill=0;" edge="1" parent="1" source="TFirGjmaCpjXLoTHfF9m-95" target="TFirGjmaCpjXLoTHfF9m-94">
          <mxGeometry relative="1" as="geometry">
            <Array as="points">
              <mxPoint x="210" y="620" />
              <mxPoint x="210" y="660" />
            </Array>
          </mxGeometry>
        </mxCell>
        <mxCell id="TFirGjmaCpjXLoTHfF9m-95" value="작성일" style="ellipse;whiteSpace=wrap;html=1;align=center;" vertex="1" parent="1">
          <mxGeometry x="220" y="600" width="100" height="40" as="geometry" />
        </mxCell>
        <mxCell id="TFirGjmaCpjXLoTHfF9m-100" style="edgeStyle=orthogonalEdgeStyle;rounded=0;orthogonalLoop=1;jettySize=auto;html=1;exitX=0.5;exitY=1;exitDx=0;exitDy=0;entryX=0.25;entryY=0;entryDx=0;entryDy=0;endArrow=none;endFill=0;" edge="1" parent="1" source="TFirGjmaCpjXLoTHfF9m-96" target="TFirGjmaCpjXLoTHfF9m-94">
          <mxGeometry relative="1" as="geometry" />
        </mxCell>
        <mxCell id="TFirGjmaCpjXLoTHfF9m-96" value="내용" style="ellipse;whiteSpace=wrap;html=1;align=center;" vertex="1" parent="1">
          <mxGeometry x="110" y="585" width="100" height="40" as="geometry" />
        </mxCell>
        <mxCell id="TFirGjmaCpjXLoTHfF9m-102" style="edgeStyle=orthogonalEdgeStyle;rounded=0;orthogonalLoop=1;jettySize=auto;html=1;exitX=1;exitY=0.5;exitDx=0;exitDy=0;entryX=0.25;entryY=1;entryDx=0;entryDy=0;endArrow=none;endFill=0;" edge="1" parent="1" source="TFirGjmaCpjXLoTHfF9m-97" target="TFirGjmaCpjXLoTHfF9m-94">
          <mxGeometry relative="1" as="geometry" />
        </mxCell>
        <mxCell id="TFirGjmaCpjXLoTHfF9m-97" value="작성자" style="ellipse;whiteSpace=wrap;html=1;align=center;" vertex="1" parent="1">
          <mxGeometry x="20" y="700" width="100" height="40" as="geometry" />
        </mxCell>
        <mxCell id="TFirGjmaCpjXLoTHfF9m-99" style="edgeStyle=orthogonalEdgeStyle;rounded=0;orthogonalLoop=1;jettySize=auto;html=1;exitX=1;exitY=1;exitDx=0;exitDy=0;entryX=0;entryY=0.5;entryDx=0;entryDy=0;endArrow=none;endFill=0;" edge="1" parent="1" source="TFirGjmaCpjXLoTHfF9m-98" target="TFirGjmaCpjXLoTHfF9m-94">
          <mxGeometry relative="1" as="geometry">
            <Array as="points">
              <mxPoint x="105" y="670" />
            </Array>
          </mxGeometry>
        </mxCell>
        <mxCell id="TFirGjmaCpjXLoTHfF9m-98" value="댓글 번호" style="ellipse;whiteSpace=wrap;html=1;align=center;fontStyle=4;" vertex="1" parent="1">
          <mxGeometry x="20" y="620" width="100" height="40" as="geometry" />
        </mxCell>
        <mxCell id="TFirGjmaCpjXLoTHfF9m-104" style="edgeStyle=orthogonalEdgeStyle;rounded=0;orthogonalLoop=1;jettySize=auto;html=1;exitX=0;exitY=0.5;exitDx=0;exitDy=0;entryX=1;entryY=0.5;entryDx=0;entryDy=0;endArrow=none;endFill=0;" edge="1" parent="1" source="TFirGjmaCpjXLoTHfF9m-103" target="TFirGjmaCpjXLoTHfF9m-94">
          <mxGeometry relative="1" as="geometry" />
        </mxCell>
        <mxCell id="TFirGjmaCpjXLoTHfF9m-103" value="수정일" style="ellipse;whiteSpace=wrap;html=1;align=center;" vertex="1" parent="1">
          <mxGeometry x="290" y="690" width="100" height="40" as="geometry" />
        </mxCell>
        <mxCell id="TFirGjmaCpjXLoTHfF9m-108" style="edgeStyle=orthogonalEdgeStyle;rounded=0;orthogonalLoop=1;jettySize=auto;html=1;exitX=0;exitY=1;exitDx=0;exitDy=0;entryX=0.75;entryY=0;entryDx=0;entryDy=0;endArrow=none;endFill=0;" edge="1" parent="1" source="TFirGjmaCpjXLoTHfF9m-107" target="TFirGjmaCpjXLoTHfF9m-15">
          <mxGeometry relative="1" as="geometry" />
        </mxCell>
        <mxCell id="TFirGjmaCpjXLoTHfF9m-107" value="이메일" style="ellipse;whiteSpace=wrap;html=1;align=center;" vertex="1" parent="1">
          <mxGeometry x="250" y="50" width="100" height="40" as="geometry" />
        </mxCell>
        <mxCell id="TFirGjmaCpjXLoTHfF9m-110" style="edgeStyle=orthogonalEdgeStyle;rounded=0;orthogonalLoop=1;jettySize=auto;html=1;exitX=0.5;exitY=0;exitDx=0;exitDy=0;entryX=0.614;entryY=1.025;entryDx=0;entryDy=0;entryPerimeter=0;endArrow=none;endFill=0;" edge="1" parent="1" source="TFirGjmaCpjXLoTHfF9m-109" target="TFirGjmaCpjXLoTHfF9m-94">
          <mxGeometry relative="1" as="geometry">
            <Array as="points">
              <mxPoint x="220" y="720" />
              <mxPoint x="220" y="700" />
              <mxPoint x="191" y="700" />
            </Array>
          </mxGeometry>
        </mxCell>
        <mxCell id="TFirGjmaCpjXLoTHfF9m-109" value="상위댓글번호" style="ellipse;whiteSpace=wrap;html=1;align=center;" vertex="1" parent="1">
          <mxGeometry x="180" y="720" width="100" height="40" as="geometry" />
        </mxCell>
        <mxCell id="TFirGjmaCpjXLoTHfF9m-112" style="edgeStyle=orthogonalEdgeStyle;rounded=0;orthogonalLoop=1;jettySize=auto;html=1;exitX=0.5;exitY=0;exitDx=0;exitDy=0;entryX=0.25;entryY=1;entryDx=0;entryDy=0;endArrow=none;endFill=0;" edge="1" parent="1" source="TFirGjmaCpjXLoTHfF9m-111" target="TFirGjmaCpjXLoTHfF9m-15">
          <mxGeometry relative="1" as="geometry" />
        </mxCell>
        <mxCell id="TFirGjmaCpjXLoTHfF9m-111" value="비밀번호" style="ellipse;whiteSpace=wrap;html=1;align=center;" vertex="1" parent="1">
          <mxGeometry x="90" y="240" width="100" height="40" as="geometry" />
        </mxCell>
        <mxCell id="TFirGjmaCpjXLoTHfF9m-113" value="첨부파일" style="whiteSpace=wrap;html=1;align=center;" vertex="1" parent="1">
          <mxGeometry x="330" y="840" width="100" height="40" as="geometry" />
        </mxCell>
        <mxCell id="TFirGjmaCpjXLoTHfF9m-120" style="edgeStyle=orthogonalEdgeStyle;rounded=0;orthogonalLoop=1;jettySize=auto;html=1;exitX=0;exitY=1;exitDx=0;exitDy=0;entryX=0.75;entryY=0;entryDx=0;entryDy=0;endArrow=none;endFill=0;" edge="1" parent="1" source="TFirGjmaCpjXLoTHfF9m-114" target="TFirGjmaCpjXLoTHfF9m-113">
          <mxGeometry relative="1" as="geometry" />
        </mxCell>
        <mxCell id="TFirGjmaCpjXLoTHfF9m-114" value="파일명" style="ellipse;whiteSpace=wrap;html=1;align=center;" vertex="1" parent="1">
          <mxGeometry x="390" y="750" width="100" height="40" as="geometry" />
        </mxCell>
        <mxCell id="TFirGjmaCpjXLoTHfF9m-119" style="edgeStyle=orthogonalEdgeStyle;rounded=0;orthogonalLoop=1;jettySize=auto;html=1;exitX=0.5;exitY=1;exitDx=0;exitDy=0;entryX=0.362;entryY=-0.054;entryDx=0;entryDy=0;entryPerimeter=0;endArrow=none;endFill=0;" edge="1" parent="1" source="TFirGjmaCpjXLoTHfF9m-115" target="TFirGjmaCpjXLoTHfF9m-113">
          <mxGeometry relative="1" as="geometry">
            <Array as="points">
              <mxPoint x="366" y="820" />
            </Array>
          </mxGeometry>
        </mxCell>
        <mxCell id="TFirGjmaCpjXLoTHfF9m-115" value="첨부파일번호" style="ellipse;whiteSpace=wrap;html=1;align=center;fontStyle=4;" vertex="1" parent="1">
          <mxGeometry x="280" y="780" width="100" height="40" as="geometry" />
        </mxCell>
        <mxCell id="TFirGjmaCpjXLoTHfF9m-121" style="edgeStyle=orthogonalEdgeStyle;rounded=0;orthogonalLoop=1;jettySize=auto;html=1;exitX=0;exitY=0.5;exitDx=0;exitDy=0;endArrow=none;endFill=0;" edge="1" parent="1" source="TFirGjmaCpjXLoTHfF9m-116" target="TFirGjmaCpjXLoTHfF9m-113">
          <mxGeometry relative="1" as="geometry" />
        </mxCell>
        <mxCell id="TFirGjmaCpjXLoTHfF9m-116" value="경로명" style="ellipse;whiteSpace=wrap;html=1;align=center;" vertex="1" parent="1">
          <mxGeometry x="470" y="820" width="100" height="40" as="geometry" />
        </mxCell>
        <mxCell id="TFirGjmaCpjXLoTHfF9m-124" style="edgeStyle=orthogonalEdgeStyle;rounded=0;orthogonalLoop=1;jettySize=auto;html=1;exitX=1;exitY=0;exitDx=0;exitDy=0;entryX=0;entryY=0.5;entryDx=0;entryDy=0;endArrow=none;endFill=0;" edge="1" parent="1" source="TFirGjmaCpjXLoTHfF9m-117" target="TFirGjmaCpjXLoTHfF9m-113">
          <mxGeometry relative="1" as="geometry">
            <Array as="points">
              <mxPoint x="295" y="860" />
            </Array>
          </mxGeometry>
        </mxCell>
        <mxCell id="TFirGjmaCpjXLoTHfF9m-117" value="확장자명" style="ellipse;whiteSpace=wrap;html=1;align=center;" vertex="1" parent="1">
          <mxGeometry x="210" y="870" width="100" height="40" as="geometry" />
        </mxCell>
        <mxCell id="TFirGjmaCpjXLoTHfF9m-128" value="" style="edgeStyle=entityRelationEdgeStyle;fontSize=12;html=1;endArrow=ERzeroToMany;startArrow=ERmandOne;rounded=0;exitX=0.5;exitY=1;exitDx=0;exitDy=0;entryX=0.25;entryY=0;entryDx=0;entryDy=0;" edge="1" parent="1" source="TFirGjmaCpjXLoTHfF9m-15" target="TFirGjmaCpjXLoTHfF9m-38">
          <mxGeometry width="100" height="100" relative="1" as="geometry">
            <mxPoint x="420" y="350" as="sourcePoint" />
            <mxPoint x="240" y="230" as="targetPoint" />
          </mxGeometry>
        </mxCell>
        <mxCell id="TFirGjmaCpjXLoTHfF9m-129" value="" style="edgeStyle=entityRelationEdgeStyle;fontSize=12;html=1;endArrow=ERoneToMany;startArrow=ERmandOne;rounded=0;entryX=1;entryY=0.75;entryDx=0;entryDy=0;exitX=0;exitY=0.5;exitDx=0;exitDy=0;" edge="1" parent="1" source="TFirGjmaCpjXLoTHfF9m-33" target="TFirGjmaCpjXLoTHfF9m-15">
          <mxGeometry width="100" height="100" relative="1" as="geometry">
            <mxPoint x="540" y="130" as="sourcePoint" />
            <mxPoint x="520" y="250" as="targetPoint" />
          </mxGeometry>
        </mxCell>
        <mxCell id="TFirGjmaCpjXLoTHfF9m-130" value="" style="edgeStyle=entityRelationEdgeStyle;fontSize=12;html=1;endArrow=ERzeroToMany;startArrow=ERmandOne;rounded=0;exitX=1;exitY=0.5;exitDx=0;exitDy=0;entryX=0;entryY=0.25;entryDx=0;entryDy=0;" edge="1" parent="1" source="TFirGjmaCpjXLoTHfF9m-15" target="TFirGjmaCpjXLoTHfF9m-55">
          <mxGeometry width="100" height="100" relative="1" as="geometry">
            <mxPoint x="420" y="400" as="sourcePoint" />
            <mxPoint x="500" y="200" as="targetPoint" />
          </mxGeometry>
        </mxCell>
        <mxCell id="TFirGjmaCpjXLoTHfF9m-134" value="" style="edgeStyle=entityRelationEdgeStyle;fontSize=12;html=1;endArrow=ERzeroToMany;startArrow=ERmandOne;rounded=0;entryX=0.5;entryY=0;entryDx=0;entryDy=0;exitX=0.374;exitY=1.038;exitDx=0;exitDy=0;exitPerimeter=0;" edge="1" parent="1" source="TFirGjmaCpjXLoTHfF9m-38" target="TFirGjmaCpjXLoTHfF9m-94">
          <mxGeometry width="100" height="100" relative="1" as="geometry">
            <mxPoint x="420" y="530" as="sourcePoint" />
            <mxPoint x="520" y="430" as="targetPoint" />
          </mxGeometry>
        </mxCell>
        <mxCell id="TFirGjmaCpjXLoTHfF9m-135" value="" style="edgeStyle=entityRelationEdgeStyle;fontSize=12;html=1;endArrow=ERzeroToMany;startArrow=ERmandOne;rounded=0;exitX=0;exitY=0.5;exitDx=0;exitDy=0;entryX=1;entryY=0.25;entryDx=0;entryDy=0;" edge="1" parent="1" source="TFirGjmaCpjXLoTHfF9m-74" target="TFirGjmaCpjXLoTHfF9m-94">
          <mxGeometry width="100" height="100" relative="1" as="geometry">
            <mxPoint x="420" y="530" as="sourcePoint" />
            <mxPoint x="90" y="840" as="targetPoint" />
          </mxGeometry>
        </mxCell>
        <mxCell id="TFirGjmaCpjXLoTHfF9m-136" value="" style="edgeStyle=entityRelationEdgeStyle;fontSize=12;html=1;endArrow=ERzeroToMany;startArrow=ERmandOne;rounded=0;entryX=0.5;entryY=0;entryDx=0;entryDy=0;exitX=0.5;exitY=1;exitDx=0;exitDy=0;" edge="1" parent="1" source="TFirGjmaCpjXLoTHfF9m-74" target="TFirGjmaCpjXLoTHfF9m-113">
          <mxGeometry width="100" height="100" relative="1" as="geometry">
            <mxPoint x="420" y="670" as="sourcePoint" />
            <mxPoint x="520" y="570" as="targetPoint" />
          </mxGeometry>
        </mxCell>
        <mxCell id="TFirGjmaCpjXLoTHfF9m-140" value="" style="edgeStyle=entityRelationEdgeStyle;fontSize=12;html=1;endArrow=ERzeroToMany;startArrow=ERmandOne;rounded=0;exitX=1;exitY=0.75;exitDx=0;exitDy=0;entryX=0.25;entryY=0;entryDx=0;entryDy=0;" edge="1" parent="1" source="TFirGjmaCpjXLoTHfF9m-38" target="TFirGjmaCpjXLoTHfF9m-113">
          <mxGeometry width="100" height="100" relative="1" as="geometry">
            <mxPoint x="420" y="670" as="sourcePoint" />
            <mxPoint x="520" y="570" as="targetPoint" />
          </mxGeometry>
        </mxCell>
        <mxCell id="TFirGjmaCpjXLoTHfF9m-144" style="edgeStyle=orthogonalEdgeStyle;rounded=0;orthogonalLoop=1;jettySize=auto;html=1;exitX=0.5;exitY=0;exitDx=0;exitDy=0;entryX=0.5;entryY=1;entryDx=0;entryDy=0;endArrow=none;endFill=0;" edge="1" parent="1" source="TFirGjmaCpjXLoTHfF9m-141" target="TFirGjmaCpjXLoTHfF9m-15">
          <mxGeometry relative="1" as="geometry" />
        </mxCell>
        <mxCell id="TFirGjmaCpjXLoTHfF9m-141" value="권한레벨" style="ellipse;whiteSpace=wrap;html=1;align=center;" vertex="1" parent="1">
          <mxGeometry x="210" y="220" width="100" height="40" as="geometry" />
        </mxCell>
        <mxCell id="TFirGjmaCpjXLoTHfF9m-145" value="" style="edgeStyle=entityRelationEdgeStyle;fontSize=12;html=1;endArrow=ERzeroToMany;startArrow=ERmandOne;rounded=0;entryX=0.367;entryY=-0.103;entryDx=0;entryDy=0;entryPerimeter=0;" edge="1" parent="1" source="TFirGjmaCpjXLoTHfF9m-15" target="TFirGjmaCpjXLoTHfF9m-74">
          <mxGeometry width="100" height="100" relative="1" as="geometry">
            <mxPoint x="420" y="510" as="sourcePoint" />
            <mxPoint x="520" y="410" as="targetPoint" />
          </mxGeometry>
        </mxCell>
      </root>
    </mxGraphModel>
  </diagram>
</mxfile>
